<svg width="128" height="128" xmlns="http://www.w3.org/2000/svg">

 <g>
  <title>background</title>
  <rect fill="none" id="canvas_background" height="402" width="582" y="-1" x="-1"/>
 </g>
 <g>
  <title>Layer 1</title>
  <path id="svg_3" fill="#6d6d6d" d="m20,48l8,0l0,-8l-8,0l0,8zm32,-8l8,0l0,-8l-8,0l0,8zm16,0l8,0l0,-8l-8,0l0,8zm16,0l8,0l0,-8l-8,0l0,8zm-32,-16l8,0l0,-8l-8,0l0,8zm16,0l8,0l0,-8l-8,0l0,8zm16,0l8,0l0,-8l-8,0l0,8zm-32,48l8,0l0,-8l-8,0l0,8zm16,0l8,0l0,-8l-8,0l0,8zm16,0l8,0l0,-8l-8,0l0,8zm-32,16l8,0l0,-8l-8,0l0,8zm32,0l8,0l0,-8l-8,0l0,8zm-32,16l8,0l0,-8l-8,0l0,8zm32,0l8,0l0,-8l-8,0l0,8zm24,-8l8,0l0,-8l-8,0l0,8zm0,-24l0,8l8,0l0,-8l-8,0zm0,40l8,0l0,-8l-8,0l0,8zm-56,-56l8,0l0,-8l-8,0l0,8zm16,0l8,0l0,-8l-8,0l0,8zm16,0l8,0l0,-8l-8,0l0,8zm-64,8l8,0l0,-8l-8,0l0,8zm0,16l8,0l0,-8l-8,0l0,8zm0,16l8,0l0,-8l-8,0l0,8zm0,16l8,0l0,-8l-8,0l0,8zm48,-24l8,0l0,-8l-8,0l0,8z"/>
  <path id="svg_4" fill-rule="evenodd" fill="#282828" d="m124.39312,120c0,4.422 -3.578,8 -8,8l-104,0c-4.422,0 -8,-3.578 -8,-8l0,-88c0,-4.422 3.578,-8 8,-8l24,0l0,-16c0,-4.422 3.578,-8 8,-8l56,0c4.422,0 8,3.578 8,8l0,48l8,0c4.422,0 8,3.578 8,8l0,56zm-88,-88l-24,0l0,88l24,0l0,-88zm64,-24l-56,0l0,112l24,0l0,-24l8,0l0,24l24,0l0,-112zm16,56l-8,0l0,56l8,0l0,-56z" clip-rule="evenodd"/>
 </g>
</svg>